<?xml version="1.0" encoding="utf-8"?>
<!-- Generator: Adobe Illustrator 15.1.0, SVG Export Plug-In . SVG Version: 6.00 Build 0)  -->
<!DOCTYPE svg PUBLIC "-//W3C//DTD SVG 1.1//EN" "http://www.w3.org/Graphics/SVG/1.1/DTD/svg11.dtd">
<svg version="1.1" id="Layer_1" xmlns="http://www.w3.org/2000/svg" xmlns:xlink="http://www.w3.org/1999/xlink" x="0px" y="0px"
	 width="26px" height="20px" viewBox="0 0 26 20" enable-background="new 0 0 26 20" xml:space="preserve">
<g>
	<g>
		
			<linearGradient id="SVGID_1_" gradientUnits="userSpaceOnUse" x1="6.8813" y1="1" x2="6.8813" y2="21.0005" gradientTransform="matrix(1 0 0 -1 0 21)">
			<stop  offset="0" style="stop-color:#FFFFFF"/>
			<stop  offset="0.0448" style="stop-color:#FFFFFF"/>
			<stop  offset="0.5" style="stop-color:#FFFFFF"/>
			<stop  offset="0.9552" style="stop-color:#FFFFFF;stop-opacity:0.3172"/>
			<stop  offset="1" style="stop-color:#FFFFFF;stop-opacity:0.25"/>
		</linearGradient>
		<path fill="url(#SVGID_1_)" stroke="#FFFFFF" stroke-width="0.4" stroke-miterlimit="10" d="M6.88,20
			c-0.107,0-0.199-0.018-0.199-0.036V0.036C6.681,0.017,6.773,0,6.88,0c0.111,0,0.201,0.017,0.201,0.036v19.928
			C7.081,19.982,6.991,20,6.88,20z"/>
	</g>
	<g>
		<path fill="none" stroke="#FFFFFF" stroke-width="0.3" stroke-miterlimit="10" d="M25.968,8.331H6.851
			c-0.022,0-0.04-0.069-0.04-0.15c0-0.083,0.018-0.149,0.04-0.149h19.117c0.022,0,0.04,0.066,0.04,0.149
			C26.008,8.262,25.99,8.331,25.968,8.331z"/>
	</g>
	<g>
		
			<linearGradient id="SVGID_2_" gradientUnits="userSpaceOnUse" x1="12.4561" y1="1" x2="12.4561" y2="9.2529" gradientTransform="matrix(1 0 0 -1 0 21)">
			<stop  offset="0" style="stop-color:#FFFFFF;stop-opacity:0"/>
			<stop  offset="0.1413" style="stop-color:#FFFFFF;stop-opacity:0.1413"/>
			<stop  offset="1" style="stop-color:#FFFFFF"/>
		</linearGradient>
		<path fill="url(#SVGID_2_)" stroke="#FFFFFF" stroke-width="0.3" stroke-miterlimit="10" d="M12.456,20
			c-0.084,0-0.15-0.014-0.15-0.03v-8.192c0-0.018,0.066-0.03,0.15-0.03c0.083,0,0.15,0.014,0.15,0.03v8.192
			C12.606,19.986,12.539,20,12.456,20z"/>
	</g>
	<path fill="none" stroke="#FFFFFF" stroke-width="0.5" stroke-linecap="round" stroke-linejoin="round" d="M13.523,8.181
		c0,3.663-2.975,6.633-6.643,6.633s-6.642-2.971-6.642-6.633c0-3.664,2.974-6.634,6.642-6.634
		C10.55,1.547,13.523,4.517,13.523,8.181"/>
	<g>
		<g enable-background="new    ">
			<path fill="#FFFFFF" d="M6.616,4.645C6.514,4.649,6.388,4.663,6.238,4.686C6.087,4.709,5.959,4.739,5.854,4.775
				c-0.123,0.043-0.207,0.116-0.25,0.217C5.561,5.094,5.539,5.205,5.539,5.324v4.569c0,0.239-0.048,0.493-0.144,0.761
				c-0.096,0.268-0.237,0.507-0.422,0.717c-0.214,0.246-0.469,0.438-0.764,0.576c-0.295,0.137-0.634,0.206-1.015,0.206
				c-0.591,0-1.071-0.165-1.439-0.497s-0.552-0.777-0.552-1.339c0-0.247,0.063-0.465,0.19-0.655c0.127-0.19,0.312-0.285,0.555-0.285
				c0.218,0,0.393,0.061,0.525,0.182c0.132,0.122,0.199,0.282,0.199,0.481c0,0.116-0.024,0.232-0.071,0.348
				c-0.047,0.116-0.1,0.22-0.158,0.31c-0.055,0.084-0.116,0.182-0.185,0.293c-0.069,0.113-0.118,0.215-0.147,0.305
				c0.076,0.119,0.195,0.225,0.356,0.315c0.161,0.091,0.378,0.136,0.65,0.136c0.265,0,0.481-0.061,0.65-0.182
				c0.168-0.121,0.294-0.283,0.378-0.486c0.08-0.188,0.137-0.42,0.171-0.696c0.034-0.275,0.052-0.583,0.052-0.923V5.378
				c0-0.126-0.021-0.232-0.063-0.317C4.265,4.976,4.179,4.9,4.048,4.835C3.936,4.777,3.795,4.733,3.626,4.702
				S3.319,4.652,3.21,4.645V4.259h3.405V4.645z"/>
			<path fill="#FFFFFF" d="M15.363,4.645c-0.102,0.004-0.258,0.033-0.468,0.087c-0.21,0.055-0.36,0.111-0.452,0.168
				c-0.13,0.091-0.218,0.265-0.264,0.521c-0.045,0.257-0.067,0.583-0.067,0.978v5.645h-0.474L8.96,5.737v3.977
				c0,0.446,0.028,0.788,0.084,1.026c0.056,0.24,0.142,0.41,0.258,0.512c0.083,0.08,0.256,0.154,0.517,0.223
				c0.261,0.068,0.434,0.105,0.517,0.108v0.386H7.171v-0.386c0.098-0.007,0.263-0.042,0.495-0.106
				c0.232-0.063,0.377-0.119,0.435-0.17c0.127-0.102,0.214-0.257,0.261-0.465c0.047-0.209,0.07-0.564,0.07-1.068V5.976
				c0-0.167-0.029-0.333-0.087-0.5S8.21,5.181,8.112,5.091c-0.13-0.12-0.307-0.222-0.53-0.307S7.178,4.652,7.04,4.645V4.259h2.206
				l4.338,5.877V6.47c0-0.449-0.028-0.794-0.086-1.035s-0.142-0.401-0.25-0.481c-0.102-0.068-0.267-0.136-0.498-0.201
				c-0.23-0.065-0.405-0.102-0.525-0.109V4.259h3.139V4.645z"/>
			<path fill="#FFFFFF" d="M19.386,12.153c-0.46,0-0.901-0.091-1.323-0.271s-0.797-0.442-1.123-0.783
				c-0.322-0.341-0.58-0.756-0.771-1.248S15.88,8.806,15.88,8.19c0-0.616,0.095-1.175,0.282-1.677
				c0.189-0.502,0.449-0.934,0.783-1.297c0.33-0.359,0.719-0.636,1.168-0.832s0.93-0.294,1.44-0.294c0.38,0,0.725,0.047,1.032,0.142
				c0.309,0.094,0.602,0.226,0.881,0.396l0.223-0.37h0.436l0.049,2.749h-0.445c-0.059-0.268-0.146-0.559-0.262-0.872
				c-0.115-0.313-0.252-0.579-0.407-0.796c-0.174-0.247-0.38-0.439-0.62-0.579c-0.238-0.14-0.512-0.209-0.82-0.209
				c-0.352,0-0.678,0.078-0.98,0.234s-0.564,0.386-0.785,0.69c-0.21,0.294-0.375,0.667-0.494,1.12s-0.18,0.959-0.18,1.517
				c0,0.493,0.063,0.945,0.188,1.356c0.125,0.412,0.304,0.773,0.535,1.085c0.232,0.308,0.507,0.549,0.824,0.724
				c0.316,0.174,0.67,0.26,1.063,0.26c0.293,0,0.563-0.046,0.809-0.139c0.246-0.092,0.461-0.214,0.642-0.366
				c0.181-0.159,0.341-0.341,0.478-0.543c0.139-0.203,0.25-0.424,0.338-0.663l0.408,0.196c-0.313,0.764-0.726,1.31-1.24,1.638
				C20.709,11.99,20.096,12.153,19.386,12.153z"/>
		</g>
	</g>
	<path fill="none" stroke="#FFFFFF" stroke-width="0.4" stroke-linecap="round" stroke-linejoin="round" d="M6.881,19.307
		c2.955,0,5.79-1.171,7.883-3.255l0,0c2.086-2.085,3.258-4.916,3.258-7.871l0,0"/>
</g>
</svg>
